<?xml version="1.0" encoding="utf-8"?>
<!-- Generator: Adobe Illustrator 24.0.1, SVG Export Plug-In . SVG Version: 6.00 Build 0)  -->
<svg version="1.1" id="Layer_1" xmlns="http://www.w3.org/2000/svg" xmlns:xlink="http://www.w3.org/1999/xlink" x="0px" y="0px"
	 viewBox="0 0 226 160" style="enable-background:new 0 0 226 160;" xml:space="preserve">
<style type="text/css">
	.st0{fill:#EFF0F2;}
	.st1{fill-rule:evenodd;clip-rule:evenodd;fill:#80D2FF;}
	.st2{fill:#A4DFFF;}
	.st3{fill:#FFFFFF;}
	.st4{fill:#0747A6;}
</style>
<path class="st0" d="M20,152h202c2.2,0,4,1.8,4,4l0,0c0,2.2-1.8,4-4,4H20c-2.2,0-4-1.8-4-4l0,0C16,153.8,17.8,152,20,152z"/>
<path class="st0" d="M4,152L4,152c-2.2,0-4,1.8-4,4l0,0c0,2.2,1.8,4,4,4l0,0c2.2,0,4-1.8,4-4l0,0C8,153.8,6.2,152,4,152z"/>
<path class="st1" d="M82,10.2V6.5C82,2.9,79.1,0,75.5,0S69,2.9,69,6.5v3.7v24v5.2v10.5c0,2.6,1.6,5,4,6c0.8,0.3,1.7,0.5,2.5,0.5
	c1.7,0,3.3-0.6,4.6-1.9l7.4-7.4l3.7-3.7l29.6-29.6l2.7-2.7c2.5-2.5,2.5-6.7,0-9.2s-6.7-2.5-9.2,0l-2.7,2.7L96,20.2l-13,13l-1,1v-1.4
	V14.4V10.2z M67.4,148.3l-3.7,3.7l-2.8,2.8c-2.5,2.5-6.8,0.8-6.8-2.8v-4v-2.6v-2.6v-1v-10.4h10.4h3.6h16.2l-14,14l-2.2,2.2
	L67.4,148.3z M177.8,131.4h-3.6H158l14,14l2.2,2.2l0.7,0.7l3.7,3.7l2.8,2.8c2.6,2.5,6.8,0.8,6.8-2.8v-4v-0.3v-2.3v-2.6v-1v-10.4
	L177.8,131.4L177.8,131.4z"/>
<path class="st2" d="M187.1,140.1h-133C48,140.1,43,135.2,43,129V53.9c0-6.1,5-11.1,11.1-11.1h133c6.1,0,11.1,5,11.1,11.1V129
	C198.2,135.2,193.3,140.1,187.1,140.1z"/>
<path class="st3" d="M177,78.4c6.2,0,11.2-5,11.2-11.2S183.2,56,177,56s-11.2,5-11.2,11.2S170.8,78.4,177,78.4z"/>
<path class="st3" d="M177,98.2c3.7,0,6.7-3,6.7-6.7s-3-6.7-6.7-6.7s-6.7,3-6.7,6.7S173.3,98.2,177,98.2z"/>
<path class="st3" d="M151.3,129.5H58.6c-2.6,0-4.6-2.1-4.6-4.6V57.6c0-2.5,2.1-4.6,4.6-4.6h92.7c2.6,0,4.6,2.1,4.6,4.6v67.2
	C156,127.4,153.9,129.5,151.3,129.5z"/>
<g>
	<g>
		<path class="st4" d="M103.8,71.2c-13,0-23.5,10.5-23.5,23.5c0,6.1,2.3,11.9,6.5,16.3l-6.1,8.2c-0.7,0.9-0.5,2.3,0.4,3
			c0.9,0.7,2.3,0.5,3-0.4l0,0l5.9-7.9c8.2,6,19.3,6,27.5,0l5.9,7.9c0.7,0.9,2.1,1.1,3,0.4s1.1-2.1,0.4-3l-6.1-8.2
			c9-9.4,8.7-24.3-0.7-33.3C115.7,73.5,109.9,71.2,103.8,71.2z M84.5,94.7c0-10.6,8.6-19.3,19.3-19.3S123,84.1,123,94.7
			s-8.6,19.3-19.3,19.3C93.1,114,84.5,105.4,84.5,94.7z"/>
		<path class="st4" d="M92.1,65.7c-4.2-4.1-11-4-15.1,0.2c-4.1,4.2-4.1,10.8,0,14.9c0.8,0.8,2.2,0.8,3,0l12.1-12.1
			C92.9,67.9,92.9,66.6,92.1,65.7z M78.7,76.1c-1.5-3.2-0.2-7,3-8.6c1.8-0.8,3.8-0.8,5.5,0L78.7,76.1z"/>
		<path class="st4" d="M130.6,65.7c-4.2-4.2-11-4.2-15.1,0c-0.8,0.8-0.8,2.2,0,3l12.1,12.1c0.8,0.8,2.2,0.8,3,0
			C134.8,76.7,134.8,69.9,130.6,65.7z M128.8,76.1l-8.6-8.6c2.5-1.1,5.4-0.6,7.3,1.3C129.5,70.7,130,73.6,128.8,76.1L128.8,76.1z"/>
	</g>
	<path class="st4" d="M103.8,79.7c-1.2,0-2.1,1-2.1,2.1V94l-6,8c-0.7,0.9-0.5,2.3,0.4,3c0.9,0.7,2.3,0.5,3-0.4l6.4-8.6
		c0.3-0.4,0.4-0.8,0.4-1.3V81.9C105.9,80.7,105,79.7,103.8,79.7z"/>
</g>
</svg>
